<svg width="390" height="76" viewBox="0 0 390 76" fill="none" xmlns="http://www.w3.org/2000/svg">
<g filter="url(#filter0_d_147_1188)">
<rect width="390" height="64" transform="translate(0 7)" fill="white"/>
<path d="M45.0409 32.0991L45.9052 34.031L48 34.2605L46.4394 35.6838L46.8698 37.7573L45.0409 36.7052L43.2121 37.7573L43.6424 35.6838L42.0818 34.2605L44.1765 34.031L45.0409 32.0991Z" fill="#F8975B"/>
<path d="M33.7433 32.6264L34.3719 34.0314L35.8954 34.1983L34.7604 35.2334L35.0734 36.7414L33.7433 35.9763L32.4132 36.7414L32.7262 35.2334L31.5912 34.1983L33.1146 34.0314L33.7433 32.6264Z" fill="#F8C35B"/>
<path d="M39.5401 23.6629L40.483 25.7704L42.7682 26.0207L41.0658 27.5734L41.5352 29.8354L39.5401 28.6877L37.545 29.8354L38.0145 27.5734L36.3119 26.0207L38.5971 25.7704L39.5401 23.6629Z" fill="#F8BE5B"/>
<path d="M43.039 47.064C35.6231 49.4496 27.7332 45.486 25.4164 38.211C23.6059 32.5255 25.7349 26.5003 30.2914 23C29.3449 23.131 28.3959 23.3406 27.4534 23.6438C18.8535 26.4103 14.0599 35.4922 16.7466 43.9288C19.4332 52.3654 28.5828 56.9618 37.1827 54.1953C42.0273 52.6368 45.6636 49.074 47.4356 44.7517C46.1524 45.7446 44.676 46.5373 43.039 47.064Z" fill="#4D78D4"/>
<path d="M75.0742 35.8807H72.1584V43.3119H69.194V29H72.1584V33.2202H75.0742V35.8807ZM58.8429 39.4817C56.9476 39.4817 56 38.5872 56 36.7982V29.7569H65.8894V32.2339H58.9158V36.5459C58.9158 36.844 59.0616 36.9817 59.3775 36.9817H66.5212V39.4817H58.8429ZM62.9007 48.8624C61.0055 48.8624 60.0578 47.9679 60.0578 46.1789V41.7523H62.9736V45.9037C62.9736 46.2018 63.1194 46.3394 63.4596 46.3394H72.62V48.8624H62.9007Z" fill="black"/>
<path d="M85.4378 49C83.5425 49 82.5949 48.1055 82.5949 46.3165V40.9037H95.0842V49H85.4378ZM90.3946 37.3945L88.8395 39.5275C87.8676 39.1835 87.0172 38.7477 86.2396 38.2202C85.4621 37.6927 84.806 37.0275 84.2229 36.2477C83.5911 37.0963 82.8865 37.8303 82.0603 38.4725C81.2342 39.1147 80.3351 39.6193 79.3875 40.0321L77.6137 37.9679C78.2212 37.7156 78.8286 37.3945 79.4118 37.0275C79.995 36.6605 80.5295 36.2477 81.0155 35.7661C81.5015 35.2844 81.8902 34.7569 82.1818 34.1605C82.4734 33.5872 82.6435 32.945 82.6921 32.2569H78.8286V29.7339H89.1797V32.2569H85.6322C85.6322 32.945 85.778 33.5413 86.0452 34.0688C86.2882 34.5963 86.6284 35.055 87.0658 35.4679C87.4788 35.8807 87.9648 36.2477 88.548 36.5688C89.1068 36.8899 89.7143 37.1651 90.3946 37.3945ZM98 35.422H95.0842V40.055H92.1198V29.0229H95.0842V32.7844H98V35.422ZM85.535 46.0642C85.535 46.3624 85.6808 46.5 85.9966 46.5H92.1441V43.4037H85.535V46.0642Z" fill="black"/>
<path d="M325.409 42.4983L323.25 34.6921C322.788 33.0222 321.784 31.555 320.395 30.5241C319.006 29.4931 317.314 28.9575 315.587 29.0026C313.86 29.0477 312.197 29.6709 310.864 30.773C309.531 31.8751 308.604 33.3928 308.23 35.0844L306.559 42.6232C306.479 42.9885 306.48 43.3672 306.565 43.7316C306.65 44.096 306.815 44.4366 307.048 44.7284C307.282 45.0203 307.577 45.2558 307.914 45.4177C308.25 45.5796 308.618 45.6637 308.991 45.6638H311.987C312.178 46.6053 312.687 47.4518 313.429 48.0598C314.171 48.6679 315.099 49 316.057 49C317.015 49 317.944 48.6679 318.686 48.0598C319.427 47.4518 319.937 46.6053 320.127 45.6638H323.009C323.393 45.6636 323.772 45.5745 324.116 45.4034C324.46 45.2323 324.759 44.9839 324.992 44.6775C325.224 44.3711 325.383 44.015 325.455 43.637C325.528 43.259 325.511 42.8693 325.409 42.4983ZM316.057 47.3298C315.544 47.3277 315.043 47.1664 314.625 46.8682C314.206 46.57 313.89 46.1493 313.718 45.6638H318.396C318.225 46.1493 317.909 46.57 317.49 46.8682C317.071 47.1664 316.571 47.3277 316.057 47.3298ZM323.67 43.6687C323.592 43.7717 323.492 43.8551 323.376 43.9123C323.261 43.9694 323.134 43.9987 323.005 43.9977H308.991C308.867 43.9977 308.744 43.9697 308.632 43.9157C308.52 43.8617 308.421 43.7832 308.344 43.6859C308.266 43.5886 308.211 43.475 308.183 43.3535C308.154 43.232 308.154 43.1057 308.181 42.9839L309.851 35.4451C310.145 34.1175 310.874 32.9266 311.92 32.0618C312.967 31.197 314.272 30.7079 315.628 30.6723C316.983 30.6367 318.312 31.0566 319.402 31.8652C320.493 32.6739 321.282 33.8249 321.646 35.1352L323.805 42.9415C323.84 43.0649 323.847 43.1949 323.823 43.3211C323.8 43.4473 323.747 43.5663 323.67 43.6687Z" fill="black"/>
<circle cx="322" cy="32" r="3" fill="#EB3939"/>
<path fill-rule="evenodd" clip-rule="evenodd" d="M369.556 37.8891C369.556 41.571 366.571 44.5557 362.889 44.5557C359.207 44.5557 356.222 41.571 356.222 37.8891C356.222 34.2072 359.207 31.2225 362.889 31.2225C366.571 31.2225 369.556 34.2072 369.556 37.8891ZM368.34 44.9109C366.835 46.0811 364.943 46.7779 362.889 46.7779C357.98 46.7779 354 42.7983 354 37.8891C354 32.9799 357.98 29.0002 362.889 29.0002C367.798 29.0002 371.778 32.9799 371.778 37.8891C371.778 39.9431 371.081 41.8343 369.911 43.3395L373.675 47.1031C374.108 47.537 374.108 48.2406 373.675 48.6745C373.241 49.1084 372.537 49.1083 372.103 48.6744L368.34 44.9109Z" fill="#222222"/>
</g>
<defs>
<filter id="filter0_d_147_1188" x="-6" y="0" width="402" height="76" filterUnits="userSpaceOnUse" color-interpolation-filters="sRGB">
<feFlood flood-opacity="0" result="BackgroundImageFix"/>
<feColorMatrix in="SourceAlpha" type="matrix" values="0 0 0 0 0 0 0 0 0 0 0 0 0 0 0 0 0 0 127 0" result="hardAlpha"/>
<feOffset dy="-1"/>
<feGaussianBlur stdDeviation="3"/>
<feComposite in2="hardAlpha" operator="out"/>
<feColorMatrix type="matrix" values="0 0 0 0 0 0 0 0 0 0 0 0 0 0 0 0 0 0 0.08 0"/>
<feBlend mode="normal" in2="BackgroundImageFix" result="effect1_dropShadow_147_1188"/>
<feBlend mode="normal" in="SourceGraphic" in2="effect1_dropShadow_147_1188" result="shape"/>
</filter>
</defs>
</svg>
