<svg width="100" height="12" viewBox="0 0 100 12" fill="none" xmlns="http://www.w3.org/2000/svg">
<path d="M100 11.5786H91.7554V0.195312H99.7919V2.30935H94.2048V4.78114H99.1516V6.83013H94.2048V9.46455H100V11.5786Z" fill="black"/>
<path d="M90.1337 11.5786H88.1005L82.8015 4.66731V11.5786H80.3682V0.195312H82.4013L87.7003 7.10658V0.195312H90.1337V11.5786Z" fill="black"/>
<path d="M73.6016 11.7736C72.4917 11.7736 71.4938 11.5188 70.6079 11.0092C69.7221 10.4997 69.0284 9.80045 68.5267 8.91147C68.0251 8.01165 67.7743 7.00342 67.7743 5.88677C67.7743 4.77013 68.0251 3.76732 68.5267 2.87834C69.0284 1.97852 69.7221 1.27384 70.6079 0.764305C71.4938 0.254768 72.4917 0 73.6016 0C74.7009 0 75.6935 0.254768 76.5793 0.764305C77.4651 1.27384 78.1589 1.97852 78.6605 2.87834C79.1728 3.76732 79.4289 4.77013 79.4289 5.88677C79.4289 7.00342 79.1728 8.01165 78.6605 8.91147C78.1589 9.80045 77.4651 10.4997 76.5793 11.0092C75.6935 11.5188 74.7009 11.7736 73.6016 11.7736ZM73.6016 9.52942C74.2313 9.52942 74.797 9.37764 75.2986 9.07409C75.8109 8.7597 76.2111 8.32605 76.4993 7.77315C76.7874 7.22024 76.9315 6.59145 76.9315 5.88677C76.9315 5.1821 76.7874 4.55331 76.4993 4.0004C76.2111 3.4475 75.8109 3.01928 75.2986 2.71572C74.797 2.40133 74.2313 2.24413 73.6016 2.24413C72.9719 2.24413 72.4009 2.40133 71.8887 2.71572C71.387 3.01928 70.9921 3.4475 70.704 4.0004C70.4158 4.55331 70.2717 5.1821 70.2717 5.88677C70.2717 6.59145 70.4158 7.22024 70.704 7.77315C70.9921 8.32605 71.387 8.7597 71.8887 9.07409C72.4009 9.37764 72.9719 9.52942 73.6016 9.52942Z" fill="#0439AA"/>
<path d="M60.3785 0.304932C60.7324 0.426025 61.0722 0.582465 61.3971 0.774658C62.2753 1.29416 62.9633 2.01259 63.4606 2.92993C63.9685 3.83625 64.2222 4.85892 64.2223 5.99731C64.2223 7.13569 63.9684 8.16394 63.4606 9.0813C62.9632 9.98769 62.2754 10.7014 61.3971 11.2209C60.5188 11.7405 59.5339 12.0002 58.444 12.0002C57.3437 12.0002 56.3543 11.7403 55.4762 11.2209C54.5979 10.7014 53.9101 9.98771 53.4127 9.0813C52.9155 8.1639 52.6666 7.13575 52.6666 5.99731C52.6667 4.85892 52.9154 3.83625 53.4127 2.92993C53.9101 2.0126 54.598 1.29414 55.4762 0.774658C55.7752 0.597821 56.088 0.4538 56.4127 0.337158V3.00513C56.0707 3.2875 55.7893 3.64354 55.5709 4.07446C55.2854 4.63804 55.1432 5.27909 55.1432 5.99731C55.1432 6.71577 55.2852 7.35742 55.5709 7.92114C55.8566 8.48479 56.2485 8.92677 56.7457 9.24731C57.2535 9.55675 57.8198 9.71209 58.444 9.71216C59.0682 9.71216 59.6293 9.55674 60.1266 9.24731C60.6344 8.9268 61.0313 8.48476 61.317 7.92114C61.6027 7.3574 61.7457 6.71581 61.7457 5.99731C61.7457 5.27896 61.6027 4.63811 61.317 4.07446C61.0805 3.6078 60.7673 3.22921 60.3785 2.93677V0.304932Z" fill="#B5B5B5"/>
<rect x="57.5139" y="0.226562" width="1.76267" height="6.69476" fill="#0439AA"/>
<path d="M43.7056 2.34187V0.195312H52.9748V2.34187H49.5809V11.5786H47.1155V2.34187H43.7056Z" fill="black"/>
<path d="M34.6856 11.7736C33.5756 11.7736 32.5777 11.5188 31.6919 11.0092C30.806 10.4997 30.1123 9.80045 29.6107 8.91147C29.1091 8.01165 28.8583 7.00342 28.8583 5.88677C28.8583 4.77013 29.1091 3.76732 29.6107 2.87834C30.1123 1.97852 30.806 1.27384 31.6919 0.764305C32.5777 0.254768 33.5756 0 34.6856 0C35.7849 0 36.7774 0.254768 37.6633 0.764305C38.5491 1.27384 39.2428 1.97852 39.7444 2.87834C40.2567 3.76732 40.5129 4.77013 40.5129 5.88677C40.5129 7.00342 40.2567 8.01165 39.7444 8.91147C39.2428 9.80045 38.5491 10.4997 37.6633 11.0092C36.7774 11.5188 35.7849 11.7736 34.6856 11.7736ZM34.6856 9.52942C35.3153 9.52942 35.8809 9.37764 36.3825 9.07409C36.8948 8.7597 37.2951 8.32605 37.5832 7.77315C37.8714 7.22024 38.0155 6.59145 38.0155 5.88677C38.0155 5.1821 37.8714 4.55331 37.5832 4.0004C37.2951 3.4475 36.8948 3.01928 36.3825 2.71572C35.8809 2.40133 35.3153 2.24413 34.6856 2.24413C34.0559 2.24413 33.4849 2.40133 32.9726 2.71572C32.471 3.01928 32.0761 3.4475 31.7879 4.0004C31.4998 4.55331 31.3557 5.1821 31.3557 5.88677C31.3557 6.59145 31.4998 7.22024 31.7879 7.77315C32.0761 8.32605 32.471 8.7597 32.9726 9.07409C33.4849 9.37764 34.0559 9.52942 34.6856 9.52942Z" fill="black"/>
<path d="M23.8797 8.40753H21.7344V11.5786H19.269V0.195312H23.8797C24.8189 0.195312 25.6353 0.363351 26.329 0.699429C27.0228 1.03551 27.5564 1.51252 27.9299 2.13047C28.3142 2.74842 28.5063 3.4802 28.5063 4.32581C28.5063 5.17143 28.3142 5.90321 27.9299 6.52116C27.5457 7.12826 27.0068 7.59444 26.313 7.91967L28.6984 11.5786H26.0569L23.9917 8.40753H23.8797ZM23.7356 6.30975C24.472 6.30975 25.0323 6.13629 25.4165 5.78938C25.8114 5.44246 26.0089 4.9546 26.0089 4.32581C26.0089 3.69702 25.8167 3.20917 25.4325 2.86225C25.0483 2.51533 24.4827 2.34187 23.7356 2.34187H21.7344V6.30975H23.7356Z" fill="black"/>
<path d="M18.2235 11.5786H9.97888V0.195312H18.0154V2.30935H12.4283V4.78114H17.3751V6.83013H12.4283V9.46455H18.2235V11.5786Z" fill="black"/>
<path d="M9.31727 11.5786H0V9.87109L5.84331 2.34187H0.128072V0.195312H9.07714V1.9028L3.24984 9.43202H9.31727V11.5786Z" fill="#0439AA"/>
</svg>
