<svg width="512" height="512" viewBox="0 0 512 512" fill="none" xmlns="http://www.w3.org/2000/svg">
<path d="M397.005 181.385L406.35 202.273L429 204.754L412.126 220.144L416.779 242.563L397.005 231.187L377.23 242.563L381.883 220.144L365.009 204.754L387.659 202.273L397.005 181.385Z" fill="#F8975B"/>
<path d="M274.849 187.086L281.646 202.277L298.119 204.081L285.847 215.274L289.231 231.579L274.849 223.306L260.468 231.579L263.852 215.274L251.58 204.081L268.052 202.277L274.849 187.086Z" fill="#F8C35B"/>
<path d="M337.528 90.1675L347.723 112.955L372.431 115.661L354.024 132.45L359.1 156.907L337.528 144.498L315.955 156.907L321.031 132.45L302.623 115.661L327.332 112.955L337.528 90.1675Z" fill="#F8BE5B"/>
<path d="M375.359 343.191C295.175 368.986 209.865 326.13 184.815 247.469C165.238 185.995 188.259 120.847 237.526 83C227.291 84.4159 217.031 86.6828 206.84 89.9611C113.853 119.874 62.0223 218.072 91.0721 309.293C120.122 400.513 219.052 450.212 312.038 420.299C364.421 403.448 403.737 364.925 422.897 318.19C409.023 328.926 393.06 337.497 375.359 343.191Z" fill="#4D78D4"/>
</svg>
