<svg width="192" height="192" viewBox="0 0 192 192" fill="none" xmlns="http://www.w3.org/2000/svg">
<path d="M148.979 67.9653L152.49 75.8135L161 76.7456L154.66 82.5279L156.408 90.9513L148.979 86.6774L141.549 90.9513L143.297 82.5279L136.957 76.7456L145.467 75.8135L148.979 67.9653Z" fill="#F8975B"/>
<path d="M103.082 70.1073L105.636 75.8151L111.825 76.493L107.214 80.6984L108.486 86.8245L103.082 83.7161L97.6787 86.8245L98.9502 80.6984L94.3392 76.493L100.528 75.8151L103.082 70.1073Z" fill="#F8C35B"/>
<path d="M126.632 33.693L130.462 42.2546L139.746 43.2715L132.83 49.5795L134.737 58.7687L126.632 54.1061L118.527 58.7687L120.434 49.5795L113.517 43.2715L122.801 42.2546L126.632 33.693Z" fill="#F8BE5B"/>
<path d="M140.846 128.76C110.719 138.451 78.6662 122.349 69.2543 92.7945C61.8988 69.6974 70.5482 45.2199 89.0588 31C85.2135 31.532 81.3584 32.3837 77.5294 33.6155C42.5924 44.8545 23.1182 81.7496 34.0329 116.023C44.9475 150.297 82.1177 168.97 117.055 157.731C136.736 151.399 151.508 136.926 158.707 119.366C153.494 123.4 147.496 126.62 140.846 128.76Z" fill="#4D78D4"/>
</svg>
