<svg width="89" height="132" viewBox="0 0 89 132" fill="none" xmlns="http://www.w3.org/2000/svg">
<path d="M73.027 22.12L74.9177 26.2856L79.5 26.7803L76.0863 29.8494L77.0276 34.3203L73.027 32.0518L69.0264 34.3203L69.9678 29.8494L66.5538 26.7803L71.1361 26.2856L73.027 22.12Z" fill="#F8975B"/>
<path d="M48.3135 23.257L49.6885 26.2865L53.0211 26.6463L50.5384 28.8784L51.223 32.1299L48.3135 30.4801L45.4039 32.1299L46.0885 28.8784L43.6057 26.6463L46.9383 26.2865L48.3135 23.257Z" fill="#F8C35B"/>
<path d="M60.994 3.92936L63.0566 8.47362L68.0555 9.01333L64.3314 12.3614L65.3583 17.2388L60.994 14.764L56.6297 17.2388L57.6566 12.3614L53.9324 9.01333L58.9312 8.47362L60.994 3.92936Z" fill="#F8BE5B"/>
<path d="M68.6477 54.3879C52.4255 59.5319 35.1664 50.9854 30.0984 35.2986C26.1378 23.0394 30.7952 10.0475 40.7624 2.5C38.6919 2.78237 36.6161 3.23443 34.5543 3.88821C15.742 9.85352 5.25596 29.4363 11.1331 47.6278C17.0102 65.8191 37.0249 75.7302 55.8373 69.7648C66.4348 66.4043 74.3891 58.7221 78.2653 49.402C75.4584 51.543 72.2289 53.2524 68.6477 54.3879Z" fill="#4D78D4"/>
<path d="M40.4649 101.95H34.3556V117.555H28.1445V87.5H34.3556V96.3624H40.4649V101.95ZM6.45656 109.511C2.48552 109.511 0.5 107.633 0.5 103.876V89.0894H21.2207V94.2913H6.60929V103.346C6.60929 103.972 6.91475 104.261 7.57659 104.261H22.5443V109.511H6.45656ZM14.9586 129.211C10.9876 129.211 9.00209 127.333 9.00209 123.576V114.28H15.1114V122.998C15.1114 123.624 15.4168 123.913 16.1296 123.913H35.3229V129.211H14.9586Z" fill="black"/>
<path d="M62.1792 129.5C58.2081 129.5 56.2226 127.622 56.2226 123.865V112.498H82.3907V129.5H62.1792ZM72.5649 105.128L69.3067 109.608C67.2702 108.885 65.4883 107.97 63.8592 106.862C62.2301 105.755 60.8555 104.358 59.6336 102.72C58.3099 104.502 56.8335 106.044 55.1026 107.392C53.3716 108.741 51.4879 109.8 49.5024 110.667L45.7859 106.333C47.0587 105.803 48.3314 105.128 49.5533 104.358C50.7751 103.587 51.8952 102.72 52.9134 101.709C53.9316 100.697 54.7462 99.5894 55.3571 98.3372C55.968 97.133 56.3244 95.7844 56.4262 94.3394H48.3314V89.0413H70.0194V94.3394H62.5864C62.5864 95.7844 62.8919 97.0367 63.4519 98.1445C63.961 99.2523 64.6738 100.216 65.5902 101.083C66.4557 101.95 67.4739 102.72 68.6957 103.394C69.8667 104.069 71.1394 104.647 72.5649 105.128ZM88.5 100.986H82.3907V110.716H76.1796V87.5482H82.3907V95.4472H88.5V100.986ZM62.3828 123.335C62.3828 123.961 62.6883 124.25 63.3501 124.25H76.2305V117.748H62.3828V123.335Z" fill="black"/>
</svg>
