<svg width="326" height="57" viewBox="0 0 326 57" fill="none" xmlns="http://www.w3.org/2000/svg">
<rect width="326" height="57" rx="6" fill="#FEE200"/>
<g clip-path="url(#clip0_110_1161)">
<path fill-rule="evenodd" clip-rule="evenodd" d="M33 19.9761C28.0292 19.9761 24 23.1055 24 26.9651C24 29.3655 25.5584 31.4815 27.9315 32.7401L26.933 36.4069C26.8448 36.7309 27.2134 36.9892 27.4965 36.8014L31.8734 33.8974C32.2427 33.9333 32.6181 33.9542 33 33.9542C37.9705 33.9542 41.9999 30.8249 41.9999 26.9651C41.9999 23.1055 37.9705 19.9761 33 19.9761Z" fill="black"/>
</g>
<path d="M134.445 22.75C134.43 26.875 133.164 30.5469 128.055 33.0625L127.242 31.9531C129.773 30.7109 131.281 29.2031 132.117 27.4219L127.539 27.8594L127.32 26.5781L132.57 26.2188C132.781 25.5078 132.906 24.75 132.961 23.9531H128.055V22.75H134.445ZM138.07 21.3281V26.9219H140.242V28.1406H138.07V35.3125H136.586V21.3281H138.07ZM148.273 22.75C148.258 26.875 146.992 30.5469 141.883 33.0625L141.07 31.9531C143.602 30.7109 145.109 29.2031 145.945 27.4219L141.367 27.8594L141.148 26.5781L146.398 26.2188C146.609 25.5078 146.734 24.75 146.789 23.9531H141.883V22.75H148.273ZM151.898 21.3281V26.9219H154.07V28.1406H151.898V35.3125H150.414V21.3281H151.898ZM161.195 22.1719C164.195 22.1875 166.367 23.6562 166.367 25.8906C166.367 27.9922 164.547 29.375 161.93 29.5938V32.3438H167.633V33.5781H154.82V32.3438H160.461V29.5938C157.859 29.375 156.039 27.9922 156.039 25.8906C156.039 23.6562 158.211 22.1875 161.195 22.1719ZM161.195 23.3906C159.039 23.375 157.477 24.375 157.477 25.8906C157.477 27.4688 159.039 28.4375 161.195 28.4531C163.367 28.4375 164.93 27.4688 164.93 25.8906C164.93 24.375 163.367 23.375 161.195 23.3906ZM181.461 32.4062V33.6562H168.648V32.4062H174.289V29.9531H170.211V25.5H178.43V23.5312H170.18V22.3125H179.898V26.6875H171.68V28.7344H180.227V29.9531H175.758V32.4062H181.461ZM199.195 32.4062V33.6562H186.383V32.4062H192.023V29.9531H187.945V25.5H196.164V23.5312H187.914V22.3125H197.633V26.6875H189.414V28.7344H197.961V29.9531H193.492V32.4062H199.195ZM211.305 22.75V24.25C211.305 26.0625 211.305 28.0312 210.789 31.0156L209.273 30.875C209.836 28.0781 209.836 26.0156 209.836 24.25V23.9688H201.586V22.75H211.305ZM212.977 32.1094V33.3438H200.211V32.1094H212.977ZM225.648 21.3438V31.5156H224.164V21.3438H225.648ZM226.07 33.8281V35.0312H216.492V30.4844H217.992V33.8281H226.07ZM218.055 22.2812C220.164 22.2812 221.773 23.7188 221.773 25.75C221.773 27.8125 220.164 29.2344 218.055 29.2344C215.945 29.2344 214.32 27.8125 214.32 25.75C214.32 23.7188 215.945 22.2812 218.055 22.2812ZM218.055 23.5781C216.742 23.5781 215.773 24.4688 215.773 25.75C215.773 27.0625 216.742 27.9375 218.055 27.9375C219.336 27.9375 220.32 27.0625 220.32 25.75C220.32 24.4688 219.336 23.5781 218.055 23.5781Z" fill="black"/>
<defs>
<clipPath id="clip0_110_1161">
<rect width="18" height="18" fill="white" transform="translate(24 19.5)"/>
</clipPath>
</defs>
</svg>
