<svg width="82" height="32" viewBox="0 0 82 32" fill="none" xmlns="http://www.w3.org/2000/svg">
<path d="M29.0409 9.09915L29.9052 11.031L32 11.2605L30.4394 12.6838L30.8698 14.7573L29.0409 13.7052L27.2121 14.7573L27.6424 12.6838L26.0818 11.2605L28.1765 11.031L29.0409 9.09915Z" fill="#F8975B"/>
<path d="M17.7433 9.62642L18.3719 11.0314L19.8954 11.1983L18.7604 12.2334L19.0734 13.7414L17.7433 12.9763L16.4132 13.7414L16.7262 12.2334L15.5912 11.1983L17.1146 11.0314L17.7433 9.62642Z" fill="#F8C35B"/>
<path d="M23.5401 0.662892L24.483 2.77037L26.7682 3.02067L25.0658 4.57342L25.5352 6.83537L23.5401 5.68767L21.545 6.83537L22.0145 4.57342L20.3119 3.02067L22.5971 2.77037L23.5401 0.662892Z" fill="#F8BE5B"/>
<path d="M27.039 24.064C19.6231 26.4496 11.7332 22.486 9.41643 15.211C7.60586 9.52552 9.73494 3.50027 14.2914 0C13.3449 0.130954 12.3959 0.340606 11.4534 0.643805C2.8535 3.41033 -1.94013 12.4922 0.746551 20.9288C3.43324 29.3654 12.5828 33.9618 21.1827 31.1953C26.0273 29.6368 29.6636 26.074 31.4356 21.7517C30.1524 22.7446 28.676 23.5373 27.039 24.064Z" fill="#4D78D4"/>
<path d="M59.0742 12.8807H56.1584V20.3119H53.194V6H56.1584V10.2202H59.0742V12.8807ZM42.8429 16.4817C40.9476 16.4817 40 15.5872 40 13.7982V6.75688H49.8894V9.23394H42.9158V13.5459C42.9158 13.844 43.0616 13.9817 43.3775 13.9817H50.5212V16.4817H42.8429ZM46.9007 25.8624C45.0055 25.8624 44.0578 24.9679 44.0578 23.1789V18.7523H46.9736V22.9037C46.9736 23.2018 47.1194 23.3394 47.4596 23.3394H56.62V25.8624H46.9007Z" fill="black"/>
<path d="M69.4378 26C67.5425 26 66.5949 25.1055 66.5949 23.3165V17.9037H79.0842V26H69.4378ZM74.3946 14.3945L72.8395 16.5275C71.8676 16.1835 71.0172 15.7477 70.2396 15.2202C69.4621 14.6927 68.806 14.0275 68.2229 13.2477C67.5911 14.0963 66.8865 14.8303 66.0603 15.4725C65.2342 16.1147 64.3351 16.6193 63.3875 17.0321L61.6137 14.9679C62.2212 14.7156 62.8286 14.3945 63.4118 14.0275C63.995 13.6605 64.5295 13.2477 65.0155 12.7661C65.5015 12.2844 65.8902 11.7569 66.1818 11.1605C66.4734 10.5872 66.6435 9.94495 66.6921 9.25688H62.8286V6.73395H73.1797V9.25688H69.6322C69.6322 9.94495 69.778 10.5413 70.0452 11.0688C70.2882 11.5963 70.6284 12.055 71.0658 12.4679C71.4788 12.8807 71.9648 13.2477 72.548 13.5688C73.1068 13.8899 73.7143 14.1651 74.3946 14.3945ZM82 12.422H79.0842V17.055H76.1198V6.02294H79.0842V9.7844H82V12.422ZM69.535 23.0642C69.535 23.3624 69.6808 23.5 69.9966 23.5H76.1441V20.4037H69.535V23.0642Z" fill="black"/>
</svg>
