<svg width="36" height="36" viewBox="0 0 36 36" fill="none" xmlns="http://www.w3.org/2000/svg">
<path d="M27.4091 21.4983L25.2495 13.6921C24.7884 12.0222 23.7835 10.555 22.395 9.52406C21.0064 8.49307 19.3139 7.95752 17.5867 8.00263C15.8596 8.04775 14.1972 8.67094 12.864 9.77303C11.5308 10.8751 10.6035 12.3928 10.2297 14.0844L8.55934 21.6232C8.47852 21.9885 8.48049 22.3672 8.56511 22.7316C8.64973 23.096 8.81485 23.4366 9.04827 23.7284C9.28169 24.0203 9.57746 24.2558 9.91376 24.4177C10.2501 24.5796 10.6183 24.6637 10.9914 24.6638H13.9873C14.178 25.6053 14.6873 26.4518 15.4291 27.0598C16.1708 27.6679 17.0993 28 18.0573 28C19.0153 28 19.9438 27.6679 20.6856 27.0598C21.4273 26.4518 21.9366 25.6053 22.1273 24.6638H25.0095C25.3933 24.6636 25.7719 24.5745 26.1157 24.4034C26.4596 24.2323 26.7594 23.9839 26.9917 23.6775C27.2241 23.3711 27.3827 23.015 27.4552 22.637C27.5278 22.259 27.5114 21.8693 27.4091 21.4983ZM18.0573 26.3298C17.5438 26.3277 17.0434 26.1664 16.6248 25.8682C16.2061 25.57 15.8895 25.1493 15.7183 24.6638H20.3963C20.2251 25.1493 19.9085 25.57 19.4899 25.8682C19.0712 26.1664 18.5708 26.3277 18.0573 26.3298ZM25.6698 22.6687C25.5923 22.7717 25.4919 22.8551 25.3765 22.9123C25.2611 22.9694 25.134 22.9987 25.0053 22.9977H10.9914C10.867 22.9977 10.7442 22.9697 10.6321 22.9157C10.5199 22.8617 10.4213 22.7832 10.3435 22.6859C10.2657 22.5886 10.2107 22.475 10.1825 22.3535C10.1543 22.232 10.1537 22.1057 10.1807 21.9839L11.851 14.4451C12.1454 13.1175 12.8738 11.9266 13.9204 11.0618C14.9671 10.197 16.272 9.70789 17.6277 9.67228C18.9834 9.63666 20.312 10.0566 21.4024 10.8652C22.4928 11.6739 23.2824 12.8249 23.6456 14.1352L25.8052 21.9415C25.8405 22.0649 25.8466 22.1949 25.8231 22.3211C25.7996 22.4473 25.7471 22.5663 25.6698 22.6687Z" fill="black"/>
<circle cx="24" cy="11" r="3" fill="#EB3939"/>
</svg>
