<svg width="36" height="36" viewBox="0 0 36 36" fill="none" xmlns="http://www.w3.org/2000/svg">
<path d="M27.4089 21.4983L25.2494 13.6921C24.7882 12.0222 23.7834 10.555 22.3948 9.52406C21.0062 8.49307 19.3137 7.95752 17.5866 8.00263C15.8595 8.04775 14.197 8.67094 12.8639 9.77303C11.5307 10.8751 10.6034 12.3928 10.2295 14.0844L8.55919 21.6232C8.47837 21.9885 8.48034 22.3672 8.56496 22.7316C8.64958 23.096 8.81469 23.4366 9.04811 23.7284C9.28153 24.0203 9.57731 24.2558 9.91361 24.4177C10.2499 24.5796 10.6182 24.6637 10.9912 24.6638H13.9872C14.1778 25.6053 14.6872 26.4518 15.4289 27.0598C16.1707 27.6679 17.0992 28 18.0572 28C19.0151 28 19.9437 27.6679 20.6854 27.0598C21.4271 26.4518 21.9365 25.6053 22.1271 24.6638H25.0093C25.3932 24.6636 25.7717 24.5745 26.1156 24.4034C26.4594 24.2323 26.7592 23.9839 26.9916 23.6775C27.2239 23.3711 27.3826 23.015 27.4551 22.637C27.5276 22.259 27.5113 21.8693 27.4089 21.4983ZM18.0572 26.3298C17.5436 26.3277 17.0433 26.1664 16.6246 25.8682C16.2059 25.57 15.8893 25.1493 15.7182 24.6638H20.3961C20.225 25.1493 19.9084 25.57 19.4897 25.8682C19.071 26.1664 18.5707 26.3277 18.0572 26.3298ZM25.6697 22.6687C25.5922 22.7717 25.4917 22.8551 25.3763 22.9123C25.261 22.9694 25.1338 22.9987 25.0052 22.9977H10.9912C10.8668 22.9977 10.744 22.9697 10.6319 22.9157C10.5198 22.8617 10.4212 22.7832 10.3434 22.6859C10.2656 22.5886 10.2105 22.475 10.1823 22.3535C10.1542 22.232 10.1535 22.1057 10.1805 21.9839L11.8509 14.4451C12.1452 13.1175 12.8736 11.9266 13.9203 11.0618C14.967 10.197 16.2719 9.70789 17.6275 9.67228C18.9832 9.63666 20.3119 10.0566 21.4023 10.8652C22.4927 11.6739 23.2822 12.8249 23.6455 14.1352L25.805 21.9415C25.8403 22.0649 25.8464 22.1949 25.8229 22.3211C25.7994 22.4473 25.747 22.5663 25.6697 22.6687Z" fill="black"/>
</svg>
