<svg width="36" height="36" viewBox="0 0 36 36" fill="none" xmlns="http://www.w3.org/2000/svg">
<path fill-rule="evenodd" clip-rule="evenodd" d="M23.5555 16.8891C23.5555 20.571 20.5708 23.5557 16.8889 23.5557C13.207 23.5557 10.2222 20.571 10.2222 16.8891C10.2222 13.2072 13.207 10.2225 16.8889 10.2225C20.5708 10.2225 23.5555 13.2072 23.5555 16.8891ZM22.3399 23.9109C20.8346 25.0811 18.9431 25.7779 16.8889 25.7779C11.9797 25.7779 8.00002 21.7983 8.00002 16.8891C8.00002 11.9799 11.9797 8.00024 16.8889 8.00024C21.7981 8.00024 25.7778 11.9799 25.7778 16.8891C25.7778 18.9431 25.0811 20.8343 23.9112 22.3395L27.6746 26.1031C28.1085 26.537 28.1085 27.2406 27.6745 27.6745C27.2406 28.1084 26.5371 28.1083 26.1032 27.6744L22.3399 23.9109Z" fill="#222222"/>
</svg>
